<?xml version="1.0" encoding="UTF-8" standalone="no"?>
<!-- Created with Inkscape (http://www.inkscape.org/) -->

<svg
   width="128"
   height="128"
   viewBox="0 0 33.866667 33.866667"
   version="1.1"
   id="svg1"
   xml:space="preserve"
   xmlns="http://www.w3.org/2000/svg"
   xmlns:svg="http://www.w3.org/2000/svg"><defs
     id="defs1" /><g
     id="layer1"><g
       style="fill:#4c694e;fill-opacity:1"
       id="g1"
       transform="matrix(2.1388573,0,0,2.1388573,-1.2469538,-3.5633365)"><path
         d="M 16.417,9.583 A 7.917,7.917 0 1 1 8.5,1.666 7.917,7.917 0 0 1 16.417,9.583 Z M 10.177,9.519 H 6.81 a 2.528,2.528 0 0 0 -2.692,2.303 v 1.51 a 0.794,0.794 0 0 0 0.792,0.792 h 7.166 a 0.794,0.794 0 0 0 0.792,-0.791 V 11.82 A 2.528,2.528 0 0 0 10.176,9.518 Z M 6.14,6.374 A 2.353,2.353 0 1 0 8.493,4.021 2.353,2.353 0 0 0 6.14,6.374 Z"
         id="path1"
         style="fill:#4c694e;fill-opacity:1" /></g></g></svg>
